<?xml version="1.0" encoding="UTF-8"?>
<!DOCTYPE svg PUBLIC "-//W3C//DTD SVG 1.1//EN" "http://www.w3.org/Graphics/SVG/1.1/DTD/svg11.dtd">
<svg xmlns="http://www.w3.org/2000/svg" version="1.1" width="48px" height="48px" style="shape-rendering:geometricPrecision; text-rendering:geometricPrecision; image-rendering:optimizeQuality; fill-rule:evenodd; clip-rule:evenodd" xmlns:xlink="http://www.w3.org/1999/xlink">
<g><path style="opacity:1" fill="#c22330" d="M 7.5,9.5 C 12.3633,9.18054 17.03,9.51388 21.5,10.5C 21.7947,12.7354 21.4614,14.7354 20.5,16.5C 19.8333,16.5 19.1667,16.5 18.5,16.5C 14.8455,16.0578 11.1788,15.7244 7.5,15.5C 7.5,13.5 7.5,11.5 7.5,9.5 Z"/></g>
<g><path style="opacity:1" fill="#86111f" d="M 7.5,9.5 C 7.5,11.5 7.5,13.5 7.5,15.5C 6.50838,15.3284 5.84171,15.6618 5.5,16.5C 5.16667,16.5 4.83333,16.5 4.5,16.5C 3.39105,16.5569 2.39105,16.8902 1.5,17.5C 1.33669,15.1432 1.50335,12.8098 2,10.5C 3.69946,9.59391 5.5328,9.26057 7.5,9.5 Z"/></g>
<g><path style="opacity:0.999" fill="#99101b" d="M 21.5,10.5 C 24.5448,10.5079 27.5448,10.8413 30.5,11.5C 30.5,13.5 30.5,15.5 30.5,17.5C 29.1667,17.5 27.8333,17.5 26.5,17.5C 24.2646,17.7947 22.2646,17.4614 20.5,16.5C 21.4614,14.7354 21.7947,12.7354 21.5,10.5 Z"/></g>
<g><path style="opacity:0.809" fill="#c62836" d="M 30.5,11.5 C 33.8333,11.5 37.1667,11.5 40.5,11.5C 40.5,13.8333 40.5,16.1667 40.5,18.5C 37.1667,18.5 33.8333,18.5 30.5,18.5C 29.1667,18.5 27.8333,18.5 26.5,18.5C 26.5,18.1667 26.5,17.8333 26.5,17.5C 27.8333,17.5 29.1667,17.5 30.5,17.5C 30.5,15.5 30.5,13.5 30.5,11.5 Z"/></g>
<g><path style="opacity:1" fill="#941721" d="M 45.5,17.5 C 44.209,17.2627 43.209,17.596 42.5,18.5C 41.8333,18.5 41.1667,18.5 40.5,18.5C 40.5,16.1667 40.5,13.8333 40.5,11.5C 42.1172,10.962 43.7839,10.6287 45.5,10.5C 45.5,12.8333 45.5,15.1667 45.5,17.5 Z"/></g>
<g><path style="opacity:1" fill="#b6900f" d="M 4.5,16.5 C 4.83333,16.5 5.16667,16.5 5.5,16.5C 6.48342,20.2984 6.81675,24.2984 6.5,28.5C 5.83333,28.5 5.16667,28.5 4.5,28.5C 4.5,24.5 4.5,20.5 4.5,16.5 Z"/></g>
<g><path style="opacity:1" fill="#f0bd28" d="M 5.5,16.5 C 5.84171,15.6618 6.50838,15.3284 7.5,15.5C 11.1788,15.7244 14.8455,16.0578 18.5,16.5C 17.9002,17.8999 16.9002,18.8999 15.5,19.5C 14.3709,21.6282 14.2042,23.9615 15,26.5C 16.3561,27.3802 17.8561,27.7135 19.5,27.5C 19.5476,28.5071 18.5476,28.8404 16.5,28.5C 13.5,28.5 10.5,28.5 7.5,28.5C 7.16667,28.5 6.83333,28.5 6.5,28.5C 6.81675,24.2984 6.48342,20.2984 5.5,16.5 Z"/></g>
<g><path style="opacity:1" fill="#866706" d="M 4.5,16.5 C 4.5,20.5 4.5,24.5 4.5,28.5C 3.60895,29.1098 2.60895,29.4431 1.5,29.5C 1.5,25.5 1.5,21.5 1.5,17.5C 2.39105,16.8902 3.39105,16.5569 4.5,16.5 Z"/></g>
<g><path style="opacity:1" fill="#bd8e11" d="M 18.5,16.5 C 19.1667,16.5 19.8333,16.5 20.5,16.5C 22.2646,17.4614 24.2646,17.7947 26.5,17.5C 26.5,17.8333 26.5,18.1667 26.5,18.5C 26.2367,22.6002 26.5701,26.6002 27.5,30.5C 24.5701,29.701 21.5701,29.3677 18.5,29.5C 17.5084,29.6716 16.8417,29.3382 16.5,28.5C 18.5476,28.8404 19.5476,28.5071 19.5,27.5C 19.5,26.5 19.5,25.5 19.5,24.5C 19.5,23.5 19.5,22.5 19.5,21.5C 18.8166,19.8235 17.4832,19.1568 15.5,19.5C 16.9002,18.8999 17.9002,17.8999 18.5,16.5 Z"/></g>
<g><path style="opacity:1" fill="#d3a50b" d="M 26.5,18.5 C 27.8333,18.5 29.1667,18.5 30.5,18.5C 30.5,22.5 30.5,26.5 30.5,30.5C 29.5,30.5 28.5,30.5 27.5,30.5C 26.5701,26.6002 26.2367,22.6002 26.5,18.5 Z"/></g>
<g><path style="opacity:1" fill="#c79c12" d="M 40.5,18.5 C 41.1667,18.5 41.8333,18.5 42.5,18.5C 42.5,22.5 42.5,26.5 42.5,30.5C 41.8333,30.5 41.1667,30.5 40.5,30.5C 40.5,26.5 40.5,22.5 40.5,18.5 Z"/></g>
<g><path style="opacity:1" fill="#9c7808" d="M 45.5,17.5 C 45.5,21.5 45.5,25.5 45.5,29.5C 44.609,30.1098 43.609,30.4431 42.5,30.5C 42.5,26.5 42.5,22.5 42.5,18.5C 43.209,17.596 44.209,17.2627 45.5,17.5 Z"/></g>
<g><path style="opacity:1" fill="#f6c11e" d="M 30.5,18.5 C 33.8333,18.5 37.1667,18.5 40.5,18.5C 40.5,22.5 40.5,26.5 40.5,30.5C 40.5,30.8333 40.5,31.1667 40.5,31.5C 37.5,31.5 34.5,31.5 31.5,31.5C 30.8333,31.5 30.5,31.1667 30.5,30.5C 30.5,26.5 30.5,22.5 30.5,18.5 Z"/></g>
<g><path style="opacity:1" fill="#b9a9a0" d="M 19.5,21.5 C 19.5,22.5 19.5,23.5 19.5,24.5C 18.5,24.5 17.5,24.5 16.5,24.5C 16.5,23.5 16.5,22.5 16.5,21.5C 17.5,21.5 18.5,21.5 19.5,21.5 Z"/></g>
<g><path style="opacity:1" fill="#bb6931" d="M 15.5,19.5 C 17.4832,19.1568 18.8166,19.8235 19.5,21.5C 18.5,21.5 17.5,21.5 16.5,21.5C 16.5,22.5 16.5,23.5 16.5,24.5C 17.5,24.5 18.5,24.5 19.5,24.5C 19.5,25.5 19.5,26.5 19.5,27.5C 17.8561,27.7135 16.3561,27.3802 15,26.5C 14.2042,23.9615 14.3709,21.6282 15.5,19.5 Z"/></g>
<g><path style="opacity:1" fill="#85151f" d="M 4.5,28.5 C 5.16667,28.5 5.83333,28.5 6.5,28.5C 6.83333,28.5 7.16667,28.5 7.5,28.5C 6.63137,30.717 6.29803,33.0504 6.5,35.5C 5.06953,35.4208 3.73619,35.7542 2.5,36.5C 1.52577,34.2573 1.19244,31.924 1.5,29.5C 2.60895,29.4431 3.60895,29.1098 4.5,28.5 Z"/></g>
<g><path style="opacity:0.877" fill="#c72535" d="M 7.5,28.5 C 10.5,28.5 13.5,28.5 16.5,28.5C 16.8417,29.3382 17.5084,29.6716 18.5,29.5C 18.5,31.5 18.5,33.5 18.5,35.5C 14.5,35.5 10.5,35.5 6.5,35.5C 6.29803,33.0504 6.63137,30.717 7.5,28.5 Z"/></g>
<g><path style="opacity:0.925" fill="#9a101b" d="M 18.5,29.5 C 21.5701,29.3677 24.5701,29.701 27.5,30.5C 28.5,30.5 29.5,30.5 30.5,30.5C 30.5,31.1667 30.8333,31.5 31.5,31.5C 31.5,33.5 31.5,35.5 31.5,37.5C 27.1055,37.1563 22.7722,36.4897 18.5,35.5C 18.5,33.5 18.5,31.5 18.5,29.5 Z"/></g>
<g><path style="opacity:0.99" fill="#c72738" d="M 31.5,31.5 C 34.5,31.5 37.5,31.5 40.5,31.5C 40.5,33.5 40.5,35.5 40.5,37.5C 37.5,37.5 34.5,37.5 31.5,37.5C 31.5,35.5 31.5,33.5 31.5,31.5 Z"/></g>
<g><path style="opacity:1" fill="#8f1321" d="M 45.5,29.5 C 45.6633,31.8568 45.4966,34.1902 45,36.5C 43.6439,37.3802 42.1439,37.7135 40.5,37.5C 40.5,35.5 40.5,33.5 40.5,31.5C 40.5,31.1667 40.5,30.8333 40.5,30.5C 41.1667,30.5 41.8333,30.5 42.5,30.5C 43.609,30.4431 44.609,30.1098 45.5,29.5 Z"/></g>
</svg>
